<svg width="93" height="32" viewBox="0 0 93 32" fill="none" xmlns="http://www.w3.org/2000/svg">
<path fill-rule="evenodd" clip-rule="evenodd" d="M81.6774 14.9135L75.807 25.0706L70.7986 25.0906L81.6774 5.97254L92.5155 25.0906H87.4277L81.6774 14.9125V14.9135ZM65.8704 20.6689H71.4799L68.8755 25.0906H61.5641L61.5839 19.7067V6.09008H65.8912L65.8714 20.6689H65.8704ZM50.486 6.09108C55.8346 6.111 60.1617 10.3544 60.1419 15.5998C60.1221 20.8263 55.7949 25.0706 50.4453 25.0706C45.1165 25.0507 40.7894 20.8074 40.7894 15.5609C40.8092 10.3344 45.1363 6.09108 50.486 6.09108ZM50.4661 20.65C53.3304 20.65 55.6333 18.3898 55.6333 15.5998C55.6541 12.8107 53.3304 10.5307 50.486 10.5307C47.6406 10.5107 45.3168 12.7908 45.3168 15.5809C45.297 18.3699 47.6207 20.65 50.4651 20.65H50.4661ZM32.8165 14.0907C32.7569 13.3038 32.5556 12.2629 32.2551 11.2618C31.6368 9.19403 30.5617 7.29308 29.1102 5.70061C28.3485 4.87584 27.4876 4.10885 26.2043 3.20539C25.226 2.72049 24.2641 2.2029 23.3202 1.65348C22.6993 1.29987 21.9575 0.866565 20.9766 0.552796C19.8136 0.277079 18.6248 0.125825 17.43 0.101565C16.2696 0.0617217 15.1063 0.161331 13.9846 0.376487C12.8024 0.572718 11.8205 0.886487 10.5183 1.20125C7.57275 2.47825 5.28968 4.40369 3.32596 6.95867C-3.52524 16.566 2.66543 30.0252 14.1046 31.616C15.988 31.872 17.8714 31.7734 19.6536 31.361L20.9161 31.0273C20.9558 31.0074 21.0163 30.9874 21.056 30.9874L22.499 30.4376C22.5783 30.3978 22.6388 30.3778 22.7192 30.339L23.3202 30.0641C24.4734 29.4925 25.5558 28.7871 26.5454 27.9623C25.6446 28.7844 24.6649 29.5147 23.6207 30.1428L23.6802 30.1826C23.8815 30.1228 24.061 30.0641 24.2614 30.0252C24.2614 30.0252 24.2614 30.339 24.2217 30.2802C23.9014 30.5163 24.4022 30.3001 25.0429 29.9655C25.6846 29.6318 26.3054 29.2184 26.8658 28.7472C27.688 28.0599 28.409 27.3129 29.4305 26.0956C30.4719 24.2678 31.7751 22.676 32.3761 20.5344C32.5764 19.9647 32.756 19.2973 32.877 18.609C32.996 17.9217 33.0773 17.2145 33.0773 16.4873C33.0575 15.7602 32.9771 15.0131 32.8165 14.0907ZM17.9914 30.2414C21.4973 29.6905 24.4419 27.7462 26.846 25.0936C27.5075 24.1303 28.0282 23.2458 28.6688 22.2836C29.4702 20.3183 29.4107 18.5701 29.6705 17.333C29.9919 15.0918 29.2302 13.2849 28.5895 11.3594C27.6076 9.1192 26.3054 7.44975 24.0214 6.15283C18.2512 2.57686 10.3983 3.57793 6.65238 8.92297C6.63254 8.92297 6.53138 9.06043 6.33104 9.33536C6.59188 8.23567 7.2534 7.58721 7.91392 6.95768C9.87764 5.34699 12.1617 4.06901 14.7661 3.44147C17.7117 3.1267 20.6354 3.44147 23.2597 4.71846C27.1871 6.95768 29.7915 10.4759 30.4521 14.6396V18.4914C29.6309 24.7987 24.2217 29.5929 17.9914 30.2414ZM32.3959 15.8976C32.2551 6.66383 23.1 0.435257 14.1849 1.69332C11.5805 2.34078 8.73511 3.6377 6.71189 5.44561C5.73003 6.09307 5.26984 7.29237 4.28798 8.25459C0.360544 14.012 1.04289 21.3801 5.93037 25.8605C6.5573 26.4831 7.22672 27.0609 7.93375 27.5898C3.84763 25.1324 2.00392 21.418 1.36323 16.9007C1.36323 15.289 1.68357 13.6972 2.02375 12.0866C4.30881 5.03223 11.5002 -0.0956611 19.3342 1.20125C20.6364 1.51602 21.9386 1.84971 23.2617 2.16448C24.9041 2.81194 26.5266 3.77516 27.8288 5.05315C29.131 6.32914 30.1129 7.94082 31.0947 9.53159C31.7553 10.8096 32.0766 12.4203 32.3969 13.6972C32.4564 14.4244 32.4564 15.1715 32.3969 15.8986L32.3959 15.8976Z" fill="#1D1E25"/>
</svg>
